kopru_tumbacak
version=1
nRows=18
nColumns=53
inDegrees=yes
endheader
time	sacrum_pitch	sacrum_roll	sacrum_yaw	sacrum_x	sacrum_y	sacrum_z	sacroiliac_flx	hip_flx	hip_add	hip_int	knee_flx	ankle_flx	ankle_add	ankle_int	BFa.activation	BFp.activation	CF.activation	STp.activation	STa.activation	SM.activation	QF.activation	TFL.activation	GMa.activation	GMe.activation	GMi.activation	Pir.activation	GP.activation	GA.activation	AL.activation	AM.activation	AB.activation	Pec.activation	IP.activation	OE.activation	OI.activation	GS.activation	GI.activation	RF.activation	VL.activation	VI.activation	VM.activation	MG.activation	LG.activation	Pla.activation	Sol.activation	TA.activation	EDL.activation	TP.activation	FDL.activation	FHL.activation	Per.activation	Pop.activation
2.252400	20.633716	0.000000	0.000000	0.000000	0.050000	0.000000	3.700000	-8.920533	-10.000000	0.000000	-91.500000	-33.682630	-5.000000	0.000000	0.000000	0.329394	1.000000	0.326442	0.330385	1.000000	1.000000	0.619217	0.619217	0.619217	0.000000	0.000000	0.005581	0.327456	1.000000	1.000000	1.000000	0.000000	0.619217	0.000000	0.000000	1.000000	1.000000	0.621044	1.000000	1.000000	1.000000	0.367667	0.368499	0.376246	1.000000	0.382463	0.618315	0.415273	0.246944	0.246988	0.618303	0.281531
2.257350	20.633716	0.000000	0.000000	0.000000	0.050000	0.000000	3.700000	-8.680514	-10.000000	0.000000	-91.464339	-33.500000	-5.000000	0.000000	0.000000	0.298302	1.000000	0.295628	0.299199	1.000000	1.000000	0.560768	0.560767	0.560767	0.000000	0.000000	0.307832	0.296546	1.000000	1.000000	1.000000	0.000000	0.560768	0.000000	0.000000	1.000000	1.000000	0.562423	1.000000	1.000000	1.000000	0.332962	0.333715	0.340731	0.908534	0.346362	0.559951	0.376074	0.223634	0.223674	0.559940	0.254957
2.262300	20.633716	0.000000	0.000000	0.000000	0.050000	0.000000	3.700000	-8.978491	-10.000000	0.000000	-91.353996	-33.723581	-5.000000	0.000000	0.000000	0.270145	1.000000	0.267723	0.270957	1.000000	1.000000	0.815196	0.815196	0.815196	0.000000	0.000000	0.278775	0.268555	1.000000	1.000000	1.000000	0.000000	0.815196	0.000000	0.000000	1.000000	1.000000	0.817620	1.000000	1.000000	1.000000	0.301533	0.302215	0.308569	0.822776	0.503788	0.814457	0.340576	0.202525	0.202561	0.814447	0.230891
2.267250	20.633716	0.000000	0.000000	0.000000	0.050000	0.000000	3.700000	-8.500000	-10.000000	0.000000	-91.174206	-33.500000	-5.000000	0.000000	0.000000	0.244645	1.000000	0.242452	0.245381	1.000000	1.000000	0.738248	0.738248	0.738248	0.000000	0.000000	0.252461	0.243205	1.000000	1.000000	1.000000	0.000000	0.738248	0.000000	0.000000	1.000000	1.000000	0.740443	1.000000	1.000000	1.000000	0.273071	0.273689	0.279443	0.745112	0.456234	0.737579	0.308428	0.183408	0.183441	0.737569	0.209097
2.272200	20.633716	0.000000	0.000000	0.000000	0.050000	0.000000	3.700000	-8.509717	-10.000000	0.000000	-91.500000	-33.668198	-5.000000	0.000000	0.000000	0.221553	1.000000	0.219567	0.222219	1.000000	1.000000	0.972252	0.972252	0.972252	0.000000	0.000000	0.228630	0.220249	1.000000	1.000000	1.000000	0.000000	0.972252	0.000000	0.000000	1.000000	1.000000	0.975154	1.000000	1.000000	1.000000	0.247295	0.247854	0.253065	0.674780	0.600454	0.970735	0.279315	0.166096	0.166125	0.970726	0.189360
2.277150	20.633716	0.000000	0.000000	0.000000	0.050000	0.000000	3.700000	-8.536465	-10.000000	0.000000	-91.464818	-33.500000	-5.000000	0.000000	0.000000	0.200640	1.000000	0.198841	0.201243	1.000000	1.000000	1.000000	1.000000	1.000000	0.000000	0.000000	0.207049	0.199459	1.000000	1.000000	1.000000	0.000000	1.000000	0.000000	0.000000	1.000000	1.000000	1.000000	1.000000	1.000000	1.000000	0.223953	0.224459	0.229178	0.611086	0.748112	1.000000	0.252950	0.150418	0.150445	1.000000	0.171486
2.282100	20.633716	0.000000	0.000000	0.000000	0.050000	0.000000	3.700000	-8.510160	-10.000000	0.000000	-91.467329	-33.683850	-5.000000	0.000000	0.000000	0.181701	1.000000	0.180072	0.182247	1.000000	1.000000	1.000000	1.000000	1.000000	0.000000	0.000000	0.187506	0.180632	1.000000	1.000000	1.000000	0.000000	1.000000	0.000000	0.000000	1.000000	1.000000	1.000000	1.000000	1.000000	1.000000	0.202813	0.203272	0.207545	0.553404	0.677496	1.000000	0.229074	0.136220	0.136244	1.000000	0.155299
2.287050	20.633716	0.000000	0.000000	0.000000	0.050000	0.000000	3.700000	-8.998056	-10.000000	0.000000	-91.188701	-33.500000	-5.000000	0.000000	0.000000	0.164550	1.000000	0.163075	0.165045	1.000000	1.000000	1.000000	1.000000	1.000000	0.000000	0.000000	0.169807	0.163581	1.000000	1.000000	1.000000	0.000000	1.000000	0.000000	0.000000	1.000000	1.000000	1.000000	1.000000	1.000000	1.000000	0.183669	0.184085	0.187955	0.501167	0.814231	1.000000	0.207451	0.123362	0.123383	1.000000	0.140640
2.292000	20.633716	0.000000	0.000000	0.000000	0.050000	0.000000	3.700000	-8.797020	-10.000000	0.000000	-91.464707	-33.691484	-5.000000	0.000000	0.000000	0.149018	1.000000	0.147682	0.149466	1.000000	1.000000	1.000000	1.000000	1.000000	0.000000	0.000000	0.153778	0.148141	1.000000	1.000000	1.000000	0.000000	1.000000	0.000000	0.000000	1.000000	1.000000	1.000000	1.000000	1.000000	1.000000	0.166332	0.166708	0.170213	0.453861	0.737374	1.000000	0.187869	0.111717	0.111737	1.000000	0.127364
2.296950	20.633716	0.000000	0.000000	0.000000	0.050000	0.000000	3.700000	-8.582868	-10.000000	0.000000	-91.250301	-33.500000	-5.000000	0.000000	0.000000	0.134952	1.000000	0.133742	0.135357	1.000000	1.000000	1.000000	1.000000	1.000000	0.000000	0.000000	0.139263	0.134157	1.000000	1.000000	1.000000	0.000000	1.000000	0.000000	0.000000	1.000000	1.000000	1.000000	1.000000	1.000000	1.000000	0.150632	0.150973	0.154147	0.411020	0.864871	1.000000	0.170136	0.101172	0.101190	1.000000	0.115342
2.301900	20.633716	0.000000	0.000000	0.000000	0.050000	0.000000	3.700000	-8.500000	-10.000000	0.000000	-91.000318	-33.675351	-5.000000	0.000000	0.000000	0.122213	0.972263	0.121118	0.122581	0.969995	0.970443	1.000000	1.000000	1.000000	0.000000	0.000000	0.126117	0.121494	0.971216	0.971216	0.971156	0.000000	1.000000	0.000000	0.000000	0.969799	0.970496	1.000000	0.970702	0.970693	0.970693	0.136413	0.136722	0.139596	0.372223	0.783234	1.000000	0.154076	0.091622	0.091638	1.000000	0.104455
2.306850	20.633716	0.000000	0.000000	0.000000	0.050000	0.000000	3.700000	-8.781613	-10.000000	0.000000	-91.470580	-33.500000	-5.000000	0.000000	0.000000	0.110677	0.880489	0.109685	0.111010	0.878436	0.878841	1.000000	1.000000	1.000000	0.000000	0.000000	0.114213	0.110026	0.879541	0.879541	0.879486	0.000000	1.000000	0.000000	0.000000	0.878258	0.878889	1.000000	0.879075	0.879067	0.879067	0.123537	0.123816	0.126420	0.337088	0.903464	1.000000	0.139533	0.082974	0.082988	1.000000	0.094595
2.311800	20.633716	0.000000	0.000000	0.000000	0.050000	0.000000	3.700000	-8.574608	-10.000000	0.000000	-91.061873	-33.500000	-5.000000	0.000000	0.000000	0.100230	0.797378	0.099332	0.100532	0.795518	0.795885	1.000000	1.000000	1.000000	0.000000	0.000000	0.103432	0.099640	0.796519	0.796519	0.796470	0.000000	1.000000	0.000000	0.000000	0.795357	0.795929	1.000000	0.796098	0.796090	0.796090	0.111876	0.112129	0.114487	0.305270	0.818184	1.000000	0.126362	0.075142	0.075155	1.000000	0.085666
2.316750	20.633716	0.000000	0.000000	0.000000	0.050000	0.000000	3.700000	-8.989197	-10.000000	0.000000	-91.387048	-33.500000	-5.000000	0.000000	0.000000	0.403721	0.722111	0.401968	0.404935	0.720428	0.720760	1.000000	1.000000	1.000000	0.000000	0.000000	0.409454	0.403187	0.721334	0.721334	0.721289	0.000000	1.000000	0.000000	0.000000	0.720282	0.720800	1.000000	0.720952	0.720946	0.720946	0.101316	0.101545	0.103680	0.276455	0.931074	1.000000	0.114434	0.068049	0.068061	1.000000	0.387723
2.321700	20.633716	0.000000	0.000000	0.000000	0.050000	0.000000	3.700000	-8.526562	-10.000000	0.000000	-91.500000	-33.642710	-5.000000	0.000000	0.000000	0.365613	0.653950	0.364026	0.366713	0.652425	0.652726	1.000000	1.000000	1.000000	0.000000	0.000000	0.370805	0.365129	0.653246	0.653246	0.653205	0.000000	1.000000	0.000000	0.000000	0.652293	0.652762	1.000000	0.652900	0.652894	0.652894	0.091753	0.091960	0.093893	0.250360	1.000000	1.000000	0.103633	0.061626	0.061637	1.000000	0.351125
2.326650	20.633716	0.000000	0.000000	0.000000	0.050000	0.000000	3.700000	-8.592214	-10.000000	0.000000	-91.475801	-33.577360	-5.000000	0.000000	0.000000	0.331102	0.592222	0.329665	0.332098	0.590841	0.591114	1.000000	1.000000	1.000000	0.000000	0.000000	0.335804	0.330664	0.591584	0.591584	0.591548	0.000000	1.000000	0.000000	0.000000	0.590722	0.591146	1.000000	0.591272	0.591266	0.591266	0.083092	0.083280	0.085031	0.226728	0.949761	1.000000	0.093851	0.055809	0.055819	1.000000	0.317982
2.331600	20.633716	0.000000	0.000000	0.000000	0.050000	0.000000	3.700000	-8.590198	-10.000000	0.000000	-91.176520	-33.809129	-5.000000	0.000000	0.000000	0.299848	0.536321	0.298547	0.300751	0.535071	0.535317	1.000000	1.000000	1.000000	0.000000	0.000000	0.304107	0.299452	0.535744	0.535744	0.535711	0.000000	1.000000	0.000000	0.000000	0.534962	0.535347	1.000000	0.535460	0.535455	0.535455	0.075249	0.075419	0.077004	0.205326	1.000000	1.000000	0.084992	0.050541	0.050550	1.000000	0.287967
2.336550	20.633716	0.000000	0.000000	0.000000	0.050000	0.000000	3.700000	-8.505096	-10.000000	0.000000	-91.500000	-33.500000	-5.000000	0.000000	0.000000	0.271545	0.485697	0.270366	0.272362	0.484564	0.484788	1.000000	1.000000	1.000000	0.000000	0.000000	0.275401	0.271186	0.485174	0.485174	0.485144	0.000000	1.000000	0.000000	0.000000	0.484466	0.484814	1.000000	0.484917	0.484913	0.484913	0.068146	0.068300	0.069736	0.185945	0.961760	1.000000	0.076969	0.045770	0.045778	1.000000	0.260785
